<svg xmlns="http://www.w3.org/2000/svg" width="960" height="557" overflow="hidden"><g><style>.a{fill:#FFFFFF}.b{font-family:Arial,sans-serif;font-size:21px;font-weight:400}.c{fill:#B2B2B2;stroke:#0066CC;stroke-width:4}.d{font-family:Arial,sans-serif;font-size:32px;font-weight:400}.e{font-family:MS PGothic,sans-serif;font-size:21px;font-weight:400}.f{font-family:Courier New,monospace;font-size:19px;font-weight:400}.g{fill:#FFFFFF;stroke:#0066CC;stroke-width:4}.h{font-family:Courier New,monospace;font-size:21px;font-weight:400}.i{fill:#FFFFFF;stroke:#000000;stroke-width:1.33333}.j{fill:none;stroke:#000000;stroke-width:3}.k{font-family:Arial,sans-serif;font-size:21px;font-weight:700}.l{font-family:Courier New,monospace;font-size:21px;font-weight:700}</style><defs><rect class="c" width="180" height="232" id="a" /><rect class="g" width="180" height="32" id="b" /><rect class="i" width="88" height="32" id="c" /><rect class="i" width="80" height="32" id="d" /><rect class="j" width="168" height="32" id="e" /></defs><rect x="0" y="0" width="960" height="557" fill="#FFFFFF" /><path d="M1.56938 7.48587 3.49994 215.986 0.500064 216.014-1.43049 7.51365ZM-4.41648 9.04128 0 0 4.58314 8.95795Z" transform="matrix(-1 0 0 1 66.5001 225.5)" /><rect class="a" x="0" y="307" width="130" height="61" /><text class="b" x="15.6667" y="332">Increasing</text><text class="b" x="26.9133" y="357">address</text><rect class="c" x="152" y="245" width="180" height="227" /><text class="d" x="236.417" y="312">•</text><text class="d" x="236.417" y="351">•</text><text class="d" x="236.417" y="387">•</text><text class="b" x="184.833" y="501">Stack</text><text class="e" x="244.167" y="501">“</text><text class="b" x="254.833" y="501">top</text><text class="e" x="284.5" y="501">”</text><text class="b" x="167" y="226">Stack</text><text class="e" x="226.333" y="226">“</text><text class="b" x="237" y="226">bottom</text><text class="e" x="302.333" y="226">”</text><text class="f" x="84.0833" y="470">0x108</text><use x="412" y="245" href="#a" /><text class="d" x="496.417" y="315">•</text><text class="d" x="496.417" y="354">•</text><text class="d" x="496.417" y="390">•</text><text class="b" x="448.833" y="530">Stack</text><text class="e" x="508.167" y="530">“</text><text class="b" x="518.833" y="530">top</text><text class="e" x="548.5" y="530">”</text><text class="b" x="427" y="226">Stack</text><text class="e" x="486.333" y="226">“</text><text class="b" x="497" y="226">bottom</text><text class="e" x="562.333" y="226">”</text><text class="f" x="350.433" y="501">0x100</text><use x="672" y="245" href="#a" /><text class="d" x="756.417" y="315">•</text><text class="d" x="756.417" y="354">•</text><text class="d" x="756.417" y="390">•</text><text class="b" x="704.833" y="545">Stack</text><text class="e" x="764.167" y="545">“</text><text class="b" x="774.833" y="545">top</text><text class="e" x="804.5" y="545">”</text><text class="b" x="687" y="226">Stack</text><text class="e" x="746.333" y="226">“</text><text class="b" x="757" y="226">bottom</text><text class="e" x="822.333" y="226">”</text><text class="f" x="606.433" y="470">0x108</text><use x="412" y="473" href="#b" /><text class="h" x="469.917" y="495">0x123</text><use x="240.5" y="74.5001" href="#c" /><text class="h" x="254.1" y="96">0x123</text><use x="240.5" y="106.5" href="#c" /><text class="h" x="305.433" y="128">0</text><use x="240.5" y="138.5" href="#c" /><text class="h" x="254.1" y="160">0x108</text><use x="160.5" y="74.5001" href="#d" /><text class="h" x="174.333" y="96">%</text><text class="h" x="187.167" y="96">rax</text><use x="160.5" y="106.5" href="#d" /><text class="h" x="174.333" y="128">%</text><text class="h" x="187.167" y="128">rdx</text><use x="160.5" y="138.5" href="#d" /><text class="h" x="174.333" y="160">%</text><text class="h" x="187.167" y="160">rsp</text><use x="160.5" y="138.5" href="#e" /><use x="160.5" y="106.5" href="#e" /><use x="160.5" y="74.5001" href="#e" /><text class="k" x="210" y="58">Initially</text><use x="496.5" y="75.5001" href="#c" /><text class="h" x="510.1" y="97">0x123</text><use x="496.5" y="107.5" href="#c" /><text class="h" x="561.433" y="129">0</text><use x="496.5" y="139.5" href="#c" /><text class="h" x="510.1" y="161">0x100</text><use x="416.5" y="75.5001" href="#d" /><text class="h" x="430.333" y="97">%</text><text class="h" x="443.167" y="97">rax</text><use x="416.5" y="107.5" href="#d" /><text class="h" x="430.333" y="129">%</text><text class="h" x="443.167" y="129">rdx</text><use x="416.5" y="139.5" href="#d" /><text class="h" x="430.333" y="161">%</text><text class="h" x="443.167" y="161">rsp</text><use x="416.5" y="139.5" href="#e" /><use x="416.5" y="107.5" href="#e" /><use x="416.5" y="75.5001" href="#e" /><text class="l" x="438.75" y="57">pushq</text><text class="l" x="515.75" y="57">%</text><text class="l" x="528.583" y="57">rax</text><use x="752.5" y="77.5001" href="#c" /><text class="h" x="766.1" y="99">0x123</text><use x="752.5" y="109.5" href="#c" /><text class="h" x="766.1" y="131">0x123</text><use x="752.5" y="141.5" href="#c" /><text class="h" x="766.1" y="163">0x108</text><use x="672.5" y="77.5001" href="#d" /><text class="h" x="686.333" y="99">%</text><text class="h" x="699.167" y="99">rax</text><use x="672.5" y="109.5" href="#d" /><text class="h" x="686.333" y="131">%</text><text class="h" x="699.167" y="131">rdx</text><use x="672.5" y="141.5" href="#d" /><text class="h" x="686.333" y="163">%</text><text class="h" x="699.167" y="163">rsp</text><use x="672.5" y="141.5" href="#e" /><use x="672.5" y="109.5" href="#e" /><use x="672.5" y="77.5001" href="#e" /><text class="l" x="701.167" y="59">popq</text><text class="l" x="765.333" y="59">%</text><text class="l" x="778.167" y="59">rdx</text><use x="672" y="472" href="#b" /><text class="h" x="729.917" y="494">0x123</text><path d="M820.45 536.003 822.517 535.794 825.103 535.562 828.132 535.308 831.537 535.029 839.21 534.393 847.584 533.648 856.12 532.786 864.278 531.8 871.516 530.682 874.611 530.073 877.275 529.43 881.425 528.015 884.978 526.432 888.008 524.71 890.594 522.874 894.769 518.94 898.088 514.851 900.721 510.597 900.674 510.693 902.293 506.127 902.266 506.253 902.661 501.514 902.663 501.621 902.348 499.213 902.362 499.285 901.676 496.867 900.99 493.864 901.021 493.959 899.678 490.99 899.716 491.058 897.815 488.157 895.501 485.432 895.553 485.485 889.921 480.551 886.905 478.548 883.847 476.89 883.916 476.921 880.478 475.678 880.547 475.697 876.529 474.873 867.687 474.134 863.276 474.038 859.284 473.98 859.299 472.98 863.298 473.038 867.771 473.138 876.73 473.893 880.748 474.718C880.772 474.723 880.795 474.729 880.818 474.737L884.256 475.98C884.279 475.989 884.302 475.999 884.324 476.011L887.459 477.716 890.58 479.799 896.212 484.733C896.231 484.749 896.248 484.767 896.264 484.786L898.652 487.609 900.552 490.51C900.566 490.532 900.579 490.554 900.589 490.578L901.933 493.547C901.946 493.577 901.957 493.609 901.964 493.641L902.638 496.594 903.324 499.012C903.331 499.035 903.336 499.059 903.339 499.083L903.655 501.491C903.659 501.526 903.66 501.562 903.657 501.597L903.262 506.336C903.259 506.379 903.25 506.421 903.235 506.461L901.617 511.027C901.605 511.061 901.589 511.093 901.571 511.124L898.864 515.482 895.454 519.669 891.173 523.69 888.502 525.58 885.384 527.346 881.747 528.961 877.51 530.402 874.804 531.055 871.668 531.67 864.398 532.793 856.221 533.781 847.673 534.644 839.292 535.39 831.619 536.025 828.216 536.304 825.192 536.558 822.618 536.789 820.55 536.998ZM860.511 477.516 852.628 473.29 860.738 469.519Z" /><text class="f" x="350.433" y="469">0x108</text></g></svg>