<svg xmlns="http://www.w3.org/2000/svg" width="864.5" height="672.5" overflow="hidden"><g><style>.a{font-family:Arial,sans-serif;font-size:21px;font-weight:700}.b{font-family:Courier New,monospace;font-size:19px;font-weight:400}.c{font-family:Arial,sans-serif;font-size:19px;font-weight:400}.d{fill:#FFFFFF;stroke:#000000;stroke-width:0.666667}.e{fill:none;stroke:#000000;stroke-width:3}</style><defs><rect class="d" width="32" height="32" id="a" /><rect class="e" width="64" height="32" id="b" /><rect class="e" width="512" height="32" id="c" /></defs><rect x="0" y="0" width="864.5" height="672.5" fill="#FFFFFF" /><text class="a" x="21.6" y="36">Byte</text><text class="b" x="221.6" y="33">0</text><text class="b" x="285.6" y="33">1</text><text class="b" x="349.6" y="33">2</text><text class="b" x="413.6" y="33">3</text><text class="b" x="477.6" y="33">4</text><text class="b" x="541.6" y="33">5</text><text class="b" x="21.6" y="602">pushq</text><text class="c" x="88.6" y="602">rA</text><use x="212.5" y="580.5" href="#a" /><text class="b" x="222.4" y="601">A</text><use x="244.5" y="580.5" href="#a" /><text class="b" x="254.4" y="601">0</text><use x="212.5" y="580.5" href="#b" /><use x="276.5" y="580.5" href="#a" /><text class="c" x="282.7" y="603">rA</text><use x="308.5" y="580.5" href="#a" /><text class="b" x="318.4" y="601">F</text><use x="276.5" y="580.5" href="#b" /><text class="b" x="21.6" y="410">jXX</text><text class="c" x="66.3" y="410">Dest</text><use x="212.5" y="388.5" href="#a" /><text class="b" x="222.4" y="409">7</text><use x="244.5" y="388.5" href="#a" /><text class="c" x="252.2" y="411">fn</text><use x="212.5" y="388.5" href="#b" /><use x="276.5" y="388.5" href="#c" /><text class="c" x="512.8" y="411">Dest</text><text class="b" x="21.6" y="650">popq</text><text class="c" x="77.4" y="650">rA</text><use x="212.5" y="628.5" href="#a" /><text class="b" x="222.4" y="649">B</text><use x="244.5" y="628.5" href="#a" /><text class="b" x="254.4" y="649">0</text><use x="212.5" y="628.5" href="#b" /><use x="276.5" y="628.5" href="#a" /><text class="c" x="282.7" y="651">rA</text><use x="308.5" y="628.5" href="#a" /><text class="b" x="318.4" y="649">F</text><use x="276.5" y="628.5" href="#b" /><text class="b" x="21.6" y="506">call</text><text class="c" x="77.4" y="506">Dest</text><use x="212.5" y="484.5" href="#a" /><text class="b" x="222.4" y="505">8</text><use x="244.5" y="484.5" href="#a" /><text class="b" x="254.4" y="505">0</text><use x="212.5" y="484.5" href="#b" /><use x="276.5" y="484.5" href="#c" /><text class="c" x="512.8" y="507">Dest</text><text class="b" x="21.6" y="170">rrmovq</text><text class="c" x="99.8" y="170">rA</text><text class="b" x="118.4" y="170">,</text><text class="c" x="140.8" y="170">rB</text><use x="212.5" y="148.5" href="#a" /><text class="b" x="222.4" y="169">2</text><use x="244.5" y="148.5" href="#a" /><text class="b" x="254.4" y="169">0</text><use x="212.5" y="148.5" href="#b" /><use x="276.5" y="148.5" href="#a" /><text class="c" x="282.7" y="171">rA</text><use x="308.5" y="148.5" href="#a" /><text class="c" x="314.7" y="171">rB</text><use x="276.5" y="148.5" href="#b" /><text class="b" x="21.6" y="218">irmovq</text><text class="c" x="99.8" y="218">V</text><text class="b" x="112.3" y="218">,</text><text class="c" x="134.6" y="218">rB</text><use x="212.5" y="196.5" href="#a" /><text class="b" x="222.4" y="217">3</text><use x="244.5" y="196.5" href="#a" /><text class="b" x="254.4" y="217">0</text><use x="212.5" y="196.5" href="#b" /><use x="276.5" y="196.5" href="#a" /><text class="b" x="286.4" y="217">F</text><use x="308.5" y="196.5" href="#a" /><text class="c" x="314.7" y="219">rB</text><use x="276.5" y="196.5" href="#b" /><use x="340.5" y="196.5" href="#c" /><text class="c" x="589.8" y="219">V</text><text class="b" x="21.6" y="266">rmmovq</text><text class="c" x="99.8" y="266">rA</text><text class="b" x="118.4" y="266">,</text><text class="c" x="140.8" y="266">D</text><text class="b" x="154.3" y="266">(</text><text class="c" x="165.4" y="266">rB</text><text class="b" x="184.1" y="266">)</text><use x="212.5" y="244.5" href="#a" /><text class="b" x="222.4" y="265">4</text><use x="244.5" y="244.5" href="#a" /><text class="b" x="254.4" y="265">0</text><use x="212.5" y="244.5" href="#b" /><use x="276.5" y="244.5" href="#a" /><text class="c" x="282.7" y="267">rA</text><use x="308.5" y="244.5" href="#a" /><text class="c" x="314.7" y="267">rB</text><use x="276.5" y="244.5" href="#b" /><use x="340.5" y="244.5" href="#c" /><text class="c" x="589.2" y="267">D</text><text class="b" x="21.6" y="314">mrmovq</text><text class="c" x="99.8" y="314">D</text><text class="b" x="113.3" y="314">(</text><text class="c" x="124.4" y="314">rB</text><text class="b" x="143.1" y="314">),</text><text class="c" x="176.6" y="314">rA</text><use x="212.5" y="292.5" href="#a" /><text class="b" x="222.4" y="313">5</text><use x="244.5" y="292.5" href="#a" /><text class="b" x="254.4" y="313">0</text><use x="212.5" y="292.5" href="#b" /><use x="276.5" y="292.5" href="#a" /><text class="c" x="282.7" y="315">rA</text><use x="308.5" y="292.5" href="#a" /><text class="c" x="314.7" y="315">rB</text><use x="276.5" y="292.5" href="#b" /><use x="340.5" y="292.5" href="#c" /><text class="c" x="589.2" y="315">D</text><text class="b" x="21.6" y="362">OPq</text><text class="c" x="66.3" y="362">rA</text><text class="b" x="84.9" y="362">,</text><text class="c" x="107.3" y="362">rB</text><use x="212.5" y="340.5" href="#a" /><text class="b" x="222.4" y="361">6</text><use x="244.5" y="340.5" href="#a" /><text class="c" x="252.2" y="363">fn</text><use x="212.5" y="340.5" href="#b" /><use x="276.5" y="340.5" href="#a" /><text class="c" x="282.7" y="363">rA</text><use x="308.5" y="340.5" href="#a" /><text class="c" x="314.7" y="363">rB</text><use x="276.5" y="340.5" href="#b" /><text class="b" x="21.6" y="553">ret</text><use x="212.5" y="532.5" href="#a" /><text class="b" x="222.4" y="553">9</text><use x="244.5" y="532.5" href="#a" /><text class="b" x="254.4" y="553">0</text><use x="212.5" y="532.5" href="#b" /><text class="b" x="21.6" y="73">halt</text><use x="212.5" y="52.5" href="#a" /><text class="b" x="222.4" y="73">0</text><use x="244.5" y="52.5" href="#a" /><text class="b" x="254.4" y="73">0</text><use x="212.5" y="52.5" href="#b" /><text class="b" x="21.6" y="121">nop</text><use x="212.5" y="100.5" href="#a" /><text class="b" x="222.4" y="121">1</text><use x="244.5" y="100.5" href="#a" /><text class="b" x="254.4" y="121">0</text><use x="212.5" y="100.5" href="#b" /><text class="b" x="21.6" y="458">cmovXX</text><text class="c" x="99.8" y="458">rA</text><text class="b" x="118.4" y="458">,</text><text class="c" x="140.8" y="458">rB</text><use x="212.5" y="436.5" href="#a" /><text class="b" x="222.4" y="457">2</text><use x="244.5" y="436.5" href="#a" /><text class="c" x="252.2" y="459">fn</text><use x="212.5" y="436.5" href="#b" /><use x="276.5" y="436.5" href="#a" /><text class="c" x="282.7" y="459">rA</text><use x="308.5" y="436.5" href="#a" /><text class="c" x="314.7" y="459">rB</text><use x="276.5" y="436.5" href="#b" /><text class="b" x="605.6" y="33">6</text><text class="b" x="669.6" y="33">7</text><text class="b" x="733.6" y="33">8</text><text class="b" x="797.6" y="33">9</text></g></svg>