<svg xmlns="http://www.w3.org/2000/svg" width="912" height="242.5" overflow="hidden"><g><style>.a{font-family:Courier New,monospace;font-size:19px;font-weight:400}.b{fill:#FFFFFF;stroke:#000000;stroke-width:0.666667}.c{fill:none;stroke:#000000;stroke-width:3}.d{font-family:Arial,sans-serif;font-size:21px;font-weight:700}</style><defs><rect class="b" width="32" height="32" id="a" /><rect class="c" width="64" height="32" id="b" /></defs><rect x="0" y="0" width="912" height="242.5" fill="#FFFFFF" /><text class="a" x="21.6" y="75">addq</text><use x="84.5" y="54.5" href="#a" /><text class="a" x="94.4" y="75">6</text><use x="116.5" y="54.5" href="#a" /><text class="a" x="126.4" y="75">0</text><use x="84.5" y="54.5" href="#b" /><text class="a" x="21.6" y="123">subq</text><use x="84.5" y="102.5" href="#a" /><text class="a" x="94.4" y="123">6</text><use x="116.5" y="102.5" href="#a" /><text class="a" x="126.4" y="123">1</text><use x="84.5" y="102.5" href="#b" /><text class="a" x="21.6" y="171">andq</text><use x="84.5" y="150.5" href="#a" /><text class="a" x="94.4" y="171">6</text><use x="116.5" y="150.5" href="#a" /><text class="a" x="126.4" y="171">2</text><use x="84.5" y="150.5" href="#b" /><text class="a" x="21.6" y="219">xorq</text><use x="84.5" y="198.5" href="#a" /><text class="a" x="94.4" y="219">6</text><use x="116.5" y="198.5" href="#a" /><text class="a" x="126.4" y="219">3</text><use x="84.5" y="198.5" href="#b" /><text class="a" x="221.6" y="75">jmp</text><use x="284.5" y="54.5" href="#a" /><text class="a" x="294.4" y="75">7</text><use x="316.5" y="54.5" href="#a" /><text class="a" x="326.4" y="75">0</text><use x="284.5" y="54.5" href="#b" /><text class="a" x="221.6" y="123">jle</text><use x="284.5" y="102.5" href="#a" /><text class="a" x="294.4" y="123">7</text><use x="316.5" y="102.5" href="#a" /><text class="a" x="326.4" y="123">1</text><use x="284.5" y="102.5" href="#b" /><text class="a" x="221.6" y="171">jl</text><use x="284.5" y="150.5" href="#a" /><text class="a" x="294.4" y="171">7</text><use x="316.5" y="150.5" href="#a" /><text class="a" x="326.4" y="171">2</text><use x="284.5" y="150.5" href="#b" /><text class="a" x="221.6" y="219">je</text><use x="284.5" y="198.5" href="#a" /><text class="a" x="294.4" y="219">7</text><use x="316.5" y="198.5" href="#a" /><text class="a" x="326.4" y="219">3</text><use x="284.5" y="198.5" href="#b" /><text class="a" x="373.6" y="75">jne</text><use x="436.5" y="54.5" href="#a" /><text class="a" x="446.4" y="75">7</text><use x="468.5" y="54.5" href="#a" /><text class="a" x="478.4" y="75">4</text><use x="436.5" y="54.5" href="#b" /><text class="a" x="373.6" y="123">jge</text><use x="436.5" y="102.5" href="#a" /><text class="a" x="446.4" y="123">7</text><use x="468.5" y="102.5" href="#a" /><text class="a" x="478.4" y="123">5</text><use x="436.5" y="102.5" href="#b" /><text class="a" x="373.6" y="171">jg</text><use x="436.5" y="150.5" href="#a" /><text class="a" x="446.4" y="171">7</text><use x="468.5" y="150.5" href="#a" /><text class="a" x="478.4" y="171">6</text><use x="436.5" y="150.5" href="#b" /><text class="d" x="39.7" y="24">Operations</text><text class="d" x="325" y="24">Branches</text><text class="a" x="549.6" y="75">rrmovq</text><use x="620.5" y="54.5" href="#a" /><text class="a" x="630.4" y="75">2</text><use x="652.5" y="54.5" href="#a" /><text class="a" x="662.4" y="75">0</text><use x="620.5" y="54.5" href="#b" /><text class="a" x="549.6" y="123">cmovle</text><use x="620.5" y="102.5" href="#a" /><text class="a" x="630.4" y="123">2</text><use x="652.5" y="102.5" href="#a" /><text class="a" x="662.4" y="123">1</text><use x="620.5" y="102.5" href="#b" /><text class="a" x="549.6" y="171">cmovl</text><use x="620.5" y="150.5" href="#a" /><text class="a" x="630.4" y="171">2</text><use x="652.5" y="150.5" href="#a" /><text class="a" x="662.4" y="171">2</text><use x="620.5" y="150.5" href="#b" /><text class="a" x="549.6" y="219">cmove</text><use x="620.5" y="198.5" href="#a" /><text class="a" x="630.4" y="219">2</text><use x="652.5" y="198.5" href="#a" /><text class="a" x="662.4" y="219">3</text><use x="620.5" y="198.5" href="#b" /><text class="a" x="709.6" y="75">cmovne</text><use x="780.5" y="54.5" href="#a" /><text class="a" x="790.4" y="75">2</text><use x="812.5" y="54.5" href="#a" /><text class="a" x="822.4" y="75">4</text><use x="780.5" y="54.5" href="#b" /><text class="a" x="709.6" y="123">cmovge</text><use x="780.5" y="102.5" href="#a" /><text class="a" x="790.4" y="123">2</text><use x="812.5" y="102.5" href="#a" /><text class="a" x="822.4" y="123">5</text><use x="780.5" y="102.5" href="#b" /><text class="a" x="709.6" y="171">cmovg</text><use x="780.5" y="150.5" href="#a" /><text class="a" x="790.4" y="171">2</text><use x="812.5" y="150.5" href="#a" /><text class="a" x="822.4" y="171">6</text><use x="780.5" y="150.5" href="#b" /><text class="d" x="669.3" y="24">Moves</text></g></svg>