<svg xmlns="http://www.w3.org/2000/svg" width="376" height="303.5" overflow="hidden"><g><style>.a{fill:#FFFFFF;stroke:#000000;stroke-width:1.33333}.b{font-family:Courier New,monospace;font-size:16px;font-weight:400}.c{font-family:Arial,sans-serif;font-size:16px;font-weight:400}.d{fill:none;stroke:#000000;stroke-width:3}.e{fill:#808080;stroke:#000000;stroke-width:1.33333}</style><defs><rect class="a" width="88" height="24" id="a" /><rect class="a" width="24" height="24" id="b" /></defs><rect x="0" y="0" width="376" height="303.5" fill="#FFFFFF" /><use x="12" y="35.5" href="#a" /><text class="b" x="36.2" y="51">%</text><text class="b" x="45.8" y="51">rax</text><use x="12" y="59.5" href="#a" /><text class="b" x="36.2" y="75">%</text><text class="b" x="45.8" y="75">rcx</text><use x="12" y="83.5" href="#a" /><text class="b" x="36.2" y="99">%</text><text class="b" x="45.8" y="99">rdx</text><use x="12" y="107.5" href="#a" /><text class="b" x="36.2" y="123">%</text><text class="b" x="45.8" y="123">rbx</text><use x="100" y="35.5" href="#a" /><text class="b" x="124.2" y="51">%</text><text class="b" x="133.8" y="51">rsp</text><use x="100" y="59.5" href="#a" /><text class="b" x="124.2" y="75">%</text><text class="b" x="133.8" y="75">rbp</text><use x="100" y="83.5" href="#a" /><text class="b" x="124.2" y="99">%</text><text class="b" x="133.8" y="99">rsi</text><use x="100" y="107.5" href="#a" /><text class="b" x="124.2" y="123">%</text><text class="b" x="133.8" y="123">rdi</text><text class="c" x="108.9" y="24">RF: Program registers</text><use x="52" y="216.5" href="#b" /><text class="b" x="53.8" y="232">ZF</text><use x="76" y="216.5" href="#b" /><text class="b" x="77.8" y="232">SF</text><use x="100" y="216.5" href="#b" /><text class="b" x="101.8" y="232">OF</text><rect class="d" x="52" y="216.5" width="72" height="24" /><text class="c" x="73.8" y="168">CC:</text><text class="c" x="53.9" y="187">Condition</text><text class="c" x="66.2" y="206">codes</text><rect class="d" x="44" y="267.5" width="88" height="24" /><text class="c" x="76.4" y="259">PC</text><rect class="d" x="156" y="243.5" width="176" height="48" /><text class="c" x="185.8" y="232">DMEM: Memory</text><rect class="d" x="212" y="187.5" width="56" height="24" /><text class="c" x="166.6" y="176">Stat: Program status</text><use x="188" y="35.5" href="#a" /><text class="b" x="217" y="51">%r8</text><use x="188" y="59.5" href="#a" /><text class="b" x="217" y="75">%r9</text><use x="188" y="83.5" href="#a" /><text class="b" x="212.2" y="99">%r10</text><use x="188" y="107.5" href="#a" /><text class="b" x="212.2" y="123">%r11</text><use x="276" y="35.5" href="#a" /><text class="b" x="300.2" y="51">%r12</text><use x="276" y="59.5" href="#a" /><text class="b" x="300.2" y="75">%r13</text><use x="276" y="83.5" href="#a" /><text class="b" x="300.2" y="99">%r14</text><rect class="e" x="276" y="107.5" width="88" height="24" /><rect class="d" x="12" y="35.5" width="352" height="96" /></g></svg>